<?xml version="1.0" standalone="no"?>
<!DOCTYPE svg PUBLIC "-//W3C//DTD SVG 20010904//EN"
 "http://www.w3.org/TR/2001/REC-SVG-20010904/DTD/svg10.dtd">
<svg version="1.0" xmlns="http://www.w3.org/2000/svg"
 width="1125.000000pt" height="1125.000000pt" viewBox="0 0 1125.000000 1125.000000"
 preserveAspectRatio="xMidYMid meet">
<metadata>
Created by potrace 1.14, written by Peter Selinger 2001-2017
</metadata>
<g transform="translate(0.000000,1125.000000) scale(0.100000,-0.100000)"
fill="#000000" stroke="none">
<path d="M5236 10473 c-1 -1 -44 -4 -97 -8 -181 -11 -245 -17 -429 -45 -148
-22 -190 -29 -210 -35 -8 -2 -31 -7 -50 -10 -19 -3 -82 -17 -140 -31 -58 -14
-112 -27 -120 -29 -12 -2 -116 -30 -185 -49 -5 -2 -23 -8 -40 -15 -16 -7 -39
-14 -50 -15 -11 -2 -31 -8 -45 -13 -14 -6 -61 -22 -105 -37 -44 -15 -89 -31
-100 -36 -11 -5 -56 -23 -100 -40 -44 -18 -84 -35 -90 -38 -5 -4 -12 -7 -15
-8 -3 0 -25 -10 -50 -21 -25 -11 -49 -22 -55 -24 -5 -2 -44 -22 -85 -43 -41
-22 -81 -41 -89 -42 -8 -2 -17 -7 -20 -11 -3 -5 -26 -19 -51 -32 -25 -12 -67
-35 -95 -52 -27 -16 -59 -33 -70 -38 -12 -5 -27 -16 -34 -25 -7 -9 -20 -16
-27 -16 -8 0 -14 -5 -14 -11 0 -5 -4 -7 -10 -4 -5 3 -10 -3 -10 -14 0 -23 -40
-66 -70 -76 -11 -3 -20 -11 -20 -16 0 -5 -4 -9 -9 -9 -22 0 -364 -249 -440
-321 -10 -8 -26 -22 -38 -30 -76 -53 -429 -396 -538 -522 -92 -106 -101 -117
-168 -205 -28 -37 -54 -68 -59 -70 -4 -2 -8 -9 -8 -15 0 -6 -8 -20 -19 -31
-20 -22 -171 -244 -171 -251 0 -3 -15 -28 -33 -57 -19 -29 -37 -60 -41 -68 -3
-8 -22 -42 -42 -75 -19 -33 -75 -141 -123 -240 -109 -224 -121 -250 -121 -267
0 -8 -5 -19 -11 -25 -6 -6 -12 -17 -13 -24 -2 -8 -8 -25 -13 -39 -6 -14 -22
-59 -37 -100 -15 -41 -29 -82 -33 -90 -7 -18 -10 -28 -17 -57 -2 -12 -9 -31
-15 -42 -6 -11 -10 -24 -9 -28 1 -4 -4 -26 -11 -48 -22 -69 -29 -105 -21 -100
13 8 22 -13 13 -27 -4 -7 -8 -24 -9 -38 -1 -14 -2 -25 -3 -25 -3 0 -7 -17 -16
-60 -3 -16 -17 -82 -31 -146 -13 -63 -27 -137 -30 -164 -3 -27 -7 -52 -9 -55
-2 -3 -6 -29 -10 -59 -4 -30 -8 -63 -10 -73 -4 -20 -17 -144 -18 -165 0 -7 -3
-13 -7 -13 -4 0 -4 -18 0 -40 4 -22 4 -40 1 -40 -24 0 -21 -701 4 -840 2 -14
7 -50 10 -80 6 -59 10 -87 25 -165 5 -27 12 -62 15 -77 3 -16 7 -38 10 -50 3
-13 7 -34 10 -47 9 -45 55 -220 65 -246 6 -15 8 -31 4 -36 -3 -5 0 -9 5 -9 6
0 10 -3 9 -7 0 -5 2 -15 5 -23 3 -8 20 -58 38 -110 18 -52 41 -115 52 -140 11
-25 21 -47 22 -50 4 -13 27 -66 45 -103 17 -38 19 -39 20 -15 0 15 -4 29 -8
32 -12 7 -9 59 4 63 5 2 20 -23 33 -54 36 -92 55 -135 159 -353 20 -41 37 -80
38 -85 3 -20 91 -190 118 -230 29 -43 96 -108 103 -101 3 2 -20 55 -50 118
-47 97 -72 153 -118 263 -4 11 -18 45 -29 75 -26 65 -37 92 -49 123 -21 49
-124 371 -136 423 -3 11 -16 65 -30 122 -28 116 -30 123 -50 230 -9 41 -23
132 -30 182 -10 72 -16 103 -21 111 -2 4 0 10 6 14 6 4 7 12 3 18 -10 16 -11
27 -17 122 -4 73 -3 77 8 49 8 -17 16 -53 20 -81 3 -28 8 -57 10 -65 3 -7 7
-27 9 -44 5 -36 37 -107 45 -100 4 4 6 321 2 321 -1 0 -2 21 -3 48 -1 26 2 47
8 47 6 0 6 3 -1 8 -16 11 -23 367 -10 547 8 109 11 136 21 187 17 89 28 128
36 128 4 0 6 -6 4 -12 -5 -15 -13 -87 -22 -198 -12 -142 -6 -486 11 -665 6
-59 25 -192 37 -253 6 -29 12 -65 14 -80 2 -15 9 -49 15 -77 6 -27 13 -59 16
-70 2 -11 13 -52 25 -92 19 -62 25 -73 41 -68 10 4 18 2 18 -4 0 -6 -3 -11 -7
-11 -5 0 -9 -14 -10 -30 -2 -30 10 -40 22 -19 9 13 34 -19 35 -43 0 -10 5 -18
10 -18 6 0 10 -5 10 -12 0 -20 197 -473 262 -603 34 -66 66 -130 72 -142 6
-13 15 -23 19 -23 5 0 5 -4 2 -10 -3 -5 -2 -10 3 -10 5 0 13 -8 16 -17 3 -10
12 -27 19 -38 24 -38 92 -140 97 -145 3 -3 24 -30 47 -61 23 -31 47 -62 55
-70 7 -8 30 -35 50 -60 21 -26 70 -81 110 -122 40 -42 81 -91 91 -109 10 -19
30 -47 44 -64 64 -73 74 -92 72 -131 -2 -36 7 -57 62 -148 10 -16 26 -43 35
-60 9 -16 20 -32 23 -35 4 -3 17 -22 30 -43 13 -21 28 -43 35 -50 7 -6 29 -38
51 -70 21 -33 44 -61 52 -64 7 -3 13 -9 13 -14 0 -22 191 -224 330 -349 40
-36 91 -85 114 -109 78 -83 128 -130 226 -212 36 -30 67 -57 70 -60 13 -15
257 -182 273 -187 9 -2 17 -8 17 -13 0 -5 6 -9 14 -9 8 0 16 -3 18 -7 4 -10
57 -42 81 -50 9 -3 17 -10 17 -15 0 -5 5 -6 10 -3 6 3 10 1 10 -4 0 -6 4 -11
8 -11 5 0 44 -19 88 -43 90 -49 414 -197 429 -197 4 0 21 -7 38 -15 18 -8 66
-26 107 -41 41 -15 86 -31 100 -37 14 -5 30 -11 35 -12 6 -1 13 -3 18 -5 4 -1
10 -3 15 -4 11 -3 125 -38 142 -44 8 -3 20 -6 25 -8 6 -1 44 -11 86 -23 90
-24 318 -71 374 -77 39 -4 84 -9 155 -19 51 -7 108 -14 165 -20 28 -3 109 -16
180 -28 86 -15 165 -22 235 -21 101 1 268 11 306 18 11 2 46 7 79 10 95 12
123 16 235 36 58 11 123 22 145 26 22 3 72 12 110 19 39 8 81 16 95 19 14 3
36 8 50 11 14 3 36 8 50 11 14 2 55 13 92 24 37 11 71 20 75 19 4 -1 22 3 38
10 17 7 39 15 49 17 31 6 119 35 153 50 17 8 37 14 45 14 8 0 18 3 22 7 3 4
14 8 22 9 9 1 23 6 32 10 9 4 19 8 22 9 9 3 45 18 185 78 177 75 530 256 546
280 3 5 9 7 12 5 4 -1 16 5 27 14 11 10 23 18 26 18 6 0 257 164 277 181 7 5
41 31 77 57 36 26 70 51 76 57 6 5 23 19 38 30 162 116 524 462 682 652 21 25
45 52 52 59 6 7 12 16 12 20 0 3 8 14 18 23 10 9 27 28 37 42 11 15 47 62 80
105 76 102 242 350 250 375 4 10 11 19 16 19 5 0 9 4 9 8 0 5 26 55 58 113 91
164 193 379 266 560 37 92 68 175 71 185 2 11 11 36 19 57 9 20 13 37 10 37
-4 0 -1 7 6 15 7 8 9 15 5 15 -4 0 -2 6 4 14 6 7 12 25 13 40 1 14 6 26 11 26
5 0 7 6 4 14 -3 7 -2 17 3 22 5 5 11 23 14 39 3 17 12 57 22 90 9 33 18 68 20
77 2 10 6 27 9 38 13 51 16 66 20 85 2 11 6 31 9 45 4 14 8 36 11 50 3 14 7
36 10 50 5 28 16 95 20 127 2 13 6 42 10 65 37 237 50 429 50 743 0 252 -9
423 -29 575 -2 19 -8 62 -11 94 -4 33 -8 64 -10 70 -1 6 -6 34 -10 61 -5 28
-10 52 -10 55 -1 3 -5 32 -10 65 -10 67 -9 64 -18 85 -3 8 -8 29 -10 45 -7 40
-16 82 -29 130 -5 22 -12 50 -14 62 -2 12 -9 34 -14 48 -5 14 -7 25 -4 25 4 0
2 6 -4 13 -5 6 -13 28 -17 47 -18 94 -195 577 -224 615 -5 5 -14 27 -20 47 -9
26 -19 38 -34 40 -16 2 -32 24 -62 83 -22 44 -44 83 -48 86 -5 3 -8 8 -7 10 2
5 -23 62 -30 69 -3 3 -13 21 -24 40 -44 84 -83 151 -138 238 -32 51 -58 97
-58 103 0 5 -3 9 -7 9 -5 0 -26 28 -48 63 -22 34 -42 64 -45 67 -3 3 -16 22
-29 43 -12 20 -27 37 -32 37 -5 0 -9 5 -9 10 0 13 -141 195 -205 266 -5 6 -37
42 -70 79 -112 128 -409 417 -477 463 -13 9 -27 21 -33 28 -17 20 -264 204
-274 204 -5 0 -11 4 -13 8 -4 11 -124 92 -137 92 -5 0 -11 3 -13 8 -3 6 -135
92 -142 92 -2 0 -41 22 -87 48 -46 27 -99 55 -116 63 -18 7 -33 17 -33 21 0 5
-5 8 -11 8 -6 0 -54 21 -107 46 -53 25 -123 57 -156 70 -34 14 -70 29 -81 34
-39 16 -56 20 -50 10 3 -6 -1 -13 -10 -17 -10 -3 -20 0 -25 6 -4 7 -10 12 -14
11 -9 -1 -61 15 -138 43 -36 14 -69 23 -72 19 -3 -3 -6 0 -6 7 0 8 -7 11 -15
7 -8 -3 -15 -2 -15 3 0 4 -6 8 -12 9 -21 1 -57 10 -68 17 -9 5 -147 46 -200
60 -8 2 -62 15 -119 29 -57 14 -112 26 -122 26 -11 0 -19 3 -19 8 0 4 -10 8
-23 9 -12 1 -60 8 -107 17 -47 9 -96 18 -110 20 -30 6 -155 23 -225 31 -47 6
-146 19 -225 30 -20 3 -60 8 -90 11 -30 3 -68 7 -85 9 -101 12 -659 27 -669
18z m663 -1146 c16 -20 5 -26 -34 -17 -19 4 -36 5 -39 2 -4 -3 -6 -1 -6 5 0 5
3 13 7 16 11 12 60 7 72 -6z m-230 -12 c-1 -5 -1 -18 0 -29 1 -16 3 -17 17 -5
31 25 76 26 162 3 116 -32 157 -27 164 18 4 25 40 34 60 15 7 -6 27 -19 43
-27 17 -8 32 -18 35 -21 11 -13 102 -32 108 -22 4 5 15 12 24 16 10 3 15 12
13 19 -6 15 31 22 40 8 3 -5 13 -6 22 -3 9 4 21 0 27 -9 6 -8 21 -18 32 -22
16 -5 23 -2 27 13 3 13 11 18 23 16 11 -2 29 -4 42 -4 15 -1 22 -7 22 -20 0
-11 13 -28 30 -38 54 -31 30 -39 -45 -13 -29 10 -104 5 -117 -8 -15 -15 -10
-19 32 -26 31 -5 171 -39 210 -51 18 -5 101 -26 115 -29 6 -1 15 -4 20 -8 6
-3 26 -9 45 -13 19 -4 41 -12 48 -17 6 -6 12 -8 12 -4 0 3 16 0 35 -8 19 -8
35 -13 35 -10 0 3 6 2 13 -3 6 -4 15 -8 20 -9 4 -1 9 -3 12 -4 3 -1 8 -3 13
-5 9 -2 35 -12 96 -36 27 -10 52 -19 56 -19 4 0 25 -8 46 -17 22 -9 41 -17 44
-18 33 -10 269 -123 300 -145 14 -9 41 -23 60 -30 19 -7 42 -20 52 -27 9 -8
22 -15 30 -17 26 -3 128 -71 133 -88 4 -10 14 -18 23 -18 34 0 133 -77 176
-137 44 -60 58 -71 106 -79 14 -3 32 -15 40 -27 44 -63 156 -194 289 -336 30
-32 131 -168 131 -176 0 -6 13 -23 43 -56 9 -10 17 -23 17 -29 0 -5 4 -10 8
-10 10 0 37 -50 34 -62 -1 -5 2 -8 8 -8 5 0 10 -9 10 -19 0 -11 6 -22 13 -24
9 -4 9 -8 -2 -15 -14 -10 -15 -7 46 -80 13 -15 23 -34 23 -43 0 -9 3 -19 7
-23 10 -10 12 -36 3 -36 -5 0 -10 6 -13 13 -3 7 -9 2 -15 -13 -13 -33 -9 -38
38 -38 22 0 44 -4 50 -7 16 -10 12 -22 -10 -28 -20 -5 -26 -30 -14 -61 9 -23
19 -20 33 10 11 25 13 26 31 9 18 -16 18 -19 3 -41 -9 -14 -13 -27 -9 -31 3
-3 6 -2 6 4 0 13 31 13 50 -1 17 -12 20 -57 5 -68 -7 -5 -7 -11 0 -15 13 -10
32 -54 29 -70 -1 -7 -2 -22 -3 -34 0 -11 -5 -18 -11 -14 -5 3 -2 -18 6 -46 9
-29 18 -62 20 -72 17 -89 64 -167 101 -167 16 0 16 -2 -3 -18 -22 -18 -26 -61
-7 -84 6 -7 21 -34 33 -60 12 -27 29 -48 36 -48 13 0 14 -33 4 -60 -1 -3 -2
-8 -1 -12 0 -5 -4 -8 -9 -8 -5 0 -9 -3 -9 -7 1 -5 0 -10 -1 -13 -15 -37 17
-127 62 -177 14 -15 18 -28 12 -45 -4 -12 -8 -39 -9 -59 -1 -20 -5 -41 -10
-48 -5 -10 -2 -11 14 -6 14 4 31 1 47 -9 23 -16 24 -18 8 -47 -8 -17 -13 -33
-10 -36 3 -3 1 -13 -4 -23 -6 -11 -4 -38 6 -76 9 -33 17 -107 17 -166 1 -60 6
-108 10 -108 5 0 5 -5 1 -11 -4 -7 -8 -39 -10 -73 -1 -33 -6 -115 -9 -181 -9
-160 -9 -265 0 -320 5 -39 4 -46 -10 -43 -14 3 -29 -16 -55 -72 -4 -8 -1 -19
6 -25 8 -5 14 -21 14 -35 0 -14 0 -42 0 -62 0 -20 -5 -40 -12 -45 -34 -21 -54
-72 -64 -168 -9 -91 -12 -104 -29 -133 -10 -16 -35 -40 -56 -51 -35 -20 -37
-24 -37 -69 -1 -56 -18 -102 -79 -215 -23 -44 -43 -87 -43 -94 0 -9 -7 -12
-17 -9 -14 4 -22 -5 -36 -38 -10 -24 -19 -54 -20 -66 -1 -16 -6 -21 -23 -17
-17 3 -21 -1 -21 -21 0 -13 -6 -28 -13 -32 -6 -4 -11 -10 -10 -14 1 -7 -7 -16
-70 -85 -64 -70 -99 -121 -119 -175 -26 -70 -31 -77 -109 -164 -97 -108 -112
-125 -125 -154 -12 -29 -23 -35 -29 -17 -5 16 -58 -7 -58 -26 0 -9 -17 -42
-39 -73 -21 -32 -40 -66 -42 -77 -3 -14 -13 -19 -39 -19 -34 -1 -35 -2 -33
-40 2 -22 5 -41 8 -44 3 -3 22 0 43 6 38 12 132 86 132 105 0 6 11 25 25 43
14 18 25 37 25 43 0 19 99 112 117 109 12 -2 24 11 40 44 29 61 43 69 43 24 0
-49 20 -49 52 0 15 24 49 59 75 78 48 36 70 45 58 25 -4 -6 2 -17 13 -25 27
-19 18 -50 -16 -57 -29 -6 -95 -64 -100 -87 -2 -7 -15 -33 -29 -57 -27 -47
-57 -71 -107 -88 -17 -6 -30 -16 -29 -23 2 -7 -1 -12 -6 -12 -5 0 -7 -9 -4
-20 4 -15 0 -20 -13 -20 -35 0 -124 -98 -124 -137 0 -27 -45 -49 -107 -52 -7
-1 -13 -7 -13 -15 0 -8 6 -17 13 -19 6 -3 -1 -6 -16 -6 -49 -2 -94 -28 -161
-95 -53 -54 -67 -63 -74 -50 -7 13 -18 7 -61 -35 -29 -28 -55 -50 -59 -49 -4
2 -31 -11 -60 -26 -51 -28 -55 -45 -11 -46 20 0 144 64 165 85 23 23 95 63
128 71 16 4 58 35 93 70 35 35 63 60 63 56 0 -4 4 -2 8 4 4 6 43 36 87 65 111
75 185 132 185 141 0 4 6 8 13 8 6 0 21 14 32 30 11 16 23 30 28 30 4 0 7 4 7
10 0 5 -6 7 -14 4 -18 -7 -32 16 -16 26 6 4 30 3 51 -1 36 -8 42 -7 64 18 13
16 25 31 25 34 0 3 10 17 23 31 12 14 31 36 41 49 29 36 120 143 126 149 3 3
46 54 95 114 94 115 117 147 193 263 26 40 49 73 52 73 14 0 -68 -150 -95
-176 -33 -31 -95 -108 -95 -117 0 -3 -13 -26 -30 -50 -16 -25 -30 -48 -30 -51
0 -12 -108 -171 -131 -194 -56 -53 -81 -72 -90 -67 -5 4 -9 1 -9 -4 0 -6 -7
-11 -15 -11 -9 0 -15 -10 -16 -25 -1 -14 -3 -29 -4 -35 -1 -5 -3 -14 -4 -18 0
-5 -12 -22 -26 -38 -14 -16 -25 -32 -25 -36 0 -4 -6 -13 -12 -20 -24 -25 -64
-83 -76 -111 -10 -24 -17 -27 -49 -25 -37 3 -38 2 -41 -34 -4 -48 -32 -75
-142 -133 -87 -46 -114 -71 -121 -110 -3 -11 -15 -25 -29 -32 -14 -7 -70 -44
-125 -82 -89 -63 -192 -120 -295 -164 -19 -8 -56 -24 -82 -36 -26 -12 -49 -21
-52 -21 -3 0 -48 -20 -101 -45 -53 -24 -99 -44 -103 -43 -23 3 -75 -18 -79
-32 -7 -28 -100 -83 -127 -76 -12 3 -56 -1 -97 -10 -41 -9 -85 -18 -98 -20
-40 -8 -143 -44 -186 -66 -29 -15 -64 -21 -125 -23 -47 -2 -85 -4 -85 -5 0 -1
-11 -3 -25 -5 -68 -9 -151 -32 -164 -45 -8 -8 5 -10 48 -6 57 5 58 4 35 -12
-13 -9 -27 -20 -31 -26 -4 -6 -9 -4 -13 6 -4 9 -14 15 -23 13 -9 -1 -26 8 -37
21 -34 41 -94 42 -89 1 1 -12 3 -23 3 -24 1 -1 14 2 30 7 37 10 53 1 37 -22
-22 -30 -161 -43 -225 -21 -25 8 -39 9 -48 2 -7 -6 -32 -12 -55 -14 -24 -1
-71 -6 -105 -10 -55 -6 -63 -5 -63 10 0 14 -7 16 -38 11 -21 -2 -53 -2 -72 2
-19 4 -51 5 -70 2 -35 -5 -35 -5 25 -24 104 -32 107 -34 93 -50 -7 -7 -17 -12
-23 -11 -28 7 -95 39 -95 46 0 4 -12 4 -27 0 -16 -4 -45 -7 -66 -7 -20 1 -37
-3 -37 -7 0 -4 -8 -3 -18 2 -10 5 -24 6 -32 1 -8 -5 -21 -5 -29 -1 -9 5 -33 9
-53 9 -21 0 -39 1 -40 2 -2 1 -16 4 -33 6 -16 2 -41 5 -55 7 -14 3 -44 7 -67
11 -73 12 -108 17 -123 20 -60 11 -89 17 -115 21 -16 3 -41 8 -55 11 -44 9
-93 15 -156 16 -52 2 -60 5 -57 19 3 12 -8 26 -35 44 -33 22 -44 25 -61 15
-13 -6 -36 -8 -59 -3 -20 4 -44 6 -52 5 -9 -2 -26 11 -38 27 -22 30 -68 58
-110 66 -74 14 -148 38 -173 56 -29 21 -59 67 -59 91 0 9 -11 13 -27 12 -32
-1 -75 11 -118 33 -37 19 -135 84 -152 100 -7 6 -22 14 -32 18 -26 8 -36 35
-13 35 9 0 -10 14 -42 30 -32 17 -65 30 -72 30 -10 0 -11 6 -5 23 8 20 5 25
-22 37 -17 7 -50 34 -72 59 -98 110 -163 168 -218 195 -38 19 -74 48 -105 84
-84 99 -170 182 -189 182 -17 1 -17 1 0 11 20 12 23 59 3 59 -8 0 -35 19 -60
41 -26 23 -61 49 -79 58 -19 10 -30 23 -28 31 12 47 7 55 -36 55 l-42 1 4 -38
c7 -64 53 -128 140 -193 48 -36 103 -92 116 -120 9 -19 9 -19 -4 -2 -19 24
-57 31 -57 11 0 -23 20 -56 48 -81 29 -27 29 -26 38 -11 4 7 3 8 -4 4 -6 -3
-16 3 -22 15 -22 40 -6 34 92 -33 26 -18 4 -40 -28 -28 -32 13 -34 -17 -1 -30
12 -5 18 -9 13 -9 -5 -1 3 -10 16 -21 21 -16 48 -60 77 -124 2 -5 -3 -6 -10
-4 -8 3 -20 -2 -28 -9 -22 -23 -45 -11 -54 29 -8 36 -52 84 -121 132 -41 29
-65 68 -68 110 -2 30 -7 38 -28 42 -41 9 -50 13 -49 21 5 28 -7 49 -51 94 -36
36 -56 50 -70 46 -24 -6 -52 47 -45 86 6 29 -13 47 -26 26 -10 -16 -12 -8 -9
38 2 47 -31 104 -111 190 -20 22 -20 22 0 35 19 12 19 13 -8 38 -15 15 -45 65
-66 113 -22 48 -42 87 -46 87 -9 0 -17 -58 -10 -66 3 -3 6 -13 6 -22 1 -9 16
-48 35 -87 18 -38 33 -73 32 -77 -1 -5 2 -8 6 -8 9 0 27 -47 37 -97 4 -18 12
-36 18 -40 15 -10 100 -133 93 -133 -4 0 5 -18 19 -40 14 -22 25 -46 25 -55 0
-8 4 -15 9 -15 13 0 23 -35 25 -82 3 -60 -1 -58 -138 65 -86 77 -142 136 -173
182 -22 32 -23 37 -9 62 8 16 15 22 16 14 0 -11 3 -11 15 -1 9 7 12 18 7 29
-4 9 -7 28 -6 44 1 22 -3 27 -21 27 -13 0 -29 10 -37 21 -13 20 -15 20 -30 6
-14 -15 -19 -10 -50 51 -20 37 -52 121 -72 187 -116 374 -178 543 -206 560 -6
4 -8 11 -4 16 8 13 8 183 0 229 -4 19 -11 62 -17 95 -6 33 -17 74 -24 92 -8
18 -12 43 -9 55 9 41 10 212 1 263 -14 78 -16 83 -31 62 -8 -10 -12 -38 -10
-71 2 -34 -2 -61 -11 -72 -11 -16 -14 -10 -20 50 -12 107 -7 259 11 391 3 23
11 189 14 278 0 5 4 6 9 2 14 -8 23 12 28 59 6 68 9 86 16 92 8 8 -3 34 -14
34 -5 0 -8 -3 -7 -7 1 -5 -13 -39 -31 -78 -18 -38 -37 -91 -43 -117 -6 -27
-15 -48 -20 -48 -18 0 -33 -25 -31 -50 5 -59 4 -228 -2 -265 -10 -59 -23 -79
-41 -64 -18 15 -21 12 -28 -26 -14 -74 -18 -92 -23 -115 l-5 -25 -10 25 c-5
14 -11 34 -13 45 -2 11 -7 38 -11 60 -8 42 -13 564 -6 579 7 13 8 106 1 106
-12 0 -2 63 13 74 8 6 22 26 32 44 9 17 18 32 20 32 6 0 -1 -110 -7 -116 -3
-3 -1 -19 3 -35 5 -16 6 -29 3 -29 -3 0 0 -7 7 -15 21 -25 27 -11 35 81 5 55
11 103 19 144 2 14 7 45 10 70 3 25 8 55 10 66 2 12 7 37 10 55 10 60 36 187
61 298 2 9 16 59 30 111 15 52 28 102 30 110 2 8 4 16 5 18 2 1 3 5 4 10 4 16
46 140 57 167 7 17 13 35 14 40 0 6 7 24 14 40 27 63 34 80 37 90 14 56 173
373 234 470 11 17 26 44 35 62 9 18 23 37 31 44 8 6 14 17 14 23 0 6 9 22 20
36 11 14 48 63 82 110 74 102 200 252 206 245 6 -5 4 -82 -3 -115 -4 -23 -1
-21 33 15 20 22 57 65 82 95 25 30 48 57 53 58 4 2 7 8 7 13 0 5 8 17 18 27
30 32 62 72 62 78 0 3 19 29 43 57 51 63 247 263 247 253 0 -4 10 2 22 14 12
11 25 20 29 20 15 0 1 -34 -22 -54 -13 -12 -35 -34 -49 -50 -24 -27 -24 -28
-3 -17 12 6 25 16 29 22 9 16 62 36 113 44 57 8 94 23 86 34 -3 6 -14 8 -25 6
-36 -7 -33 17 6 51 22 19 51 45 65 59 15 14 39 28 54 31 36 6 59 19 121 66 61
45 76 49 34 8 -16 -16 -30 -36 -30 -45 0 -8 -4 -15 -10 -15 -5 0 -10 -5 -10
-10 0 -12 42 -4 81 16 21 11 25 19 23 49 -2 19 1 33 6 30 5 -3 29 -8 54 -10
39 -4 47 -2 57 18 7 12 16 25 22 28 5 4 10 17 11 30 1 19 7 25 31 27 17 2 55
15 85 30 30 14 58 27 63 28 4 1 10 3 15 4 4 1 10 2 15 1 4 0 7 4 7 9 0 5 3 9
8 8 15 -3 62 15 62 24 0 5 5 6 10 3 6 -4 16 -2 23 3 7 6 41 20 77 31 36 12 74
26 85 31 79 37 155 55 279 65 38 3 77 10 86 15 10 5 20 7 23 4 7 -7 83 32 93
48 5 8 2 9 -9 5 -10 -3 -17 -2 -17 4 0 5 12 8 28 6 18 -3 27 -10 26 -21 -1
-10 1 -15 4 -12 3 3 11 1 18 -5 10 -8 18 -7 29 5 9 9 22 16 28 17 7 0 21 3 32
5 11 3 52 7 90 10 39 3 79 7 90 9 11 2 32 4 46 4 17 1 29 9 36 24 10 21 17 23
59 20 27 -2 61 -4 75 -5 21 0 25 -4 21 -24 -4 -21 -1 -23 29 -20 50 6 69 16
69 36 0 10 8 20 17 22 33 6 63 3 62 -7z m549 -33 c36 -16 36 -16 10 -20 -22
-3 -108 31 -108 42 0 8 62 -6 98 -22z m-2379 -396 c-11 -23 -49 -33 -49 -13 0
4 -4 5 -10 2 -5 -3 -10 -4 -10 -1 0 6 58 34 72 35 4 1 3 -10 -3 -23z m-2782
-2728 c-3 -7 -5 -2 -5 12 0 14 2 19 5 13 2 -7 2 -19 0 -25z m1783 -3228 c0 -6
3 -10 8 -10 4 0 21 -19 37 -41 36 -49 66 -69 58 -39 -4 13 0 20 10 20 17 0 31
-27 18 -35 -5 -2 -11 -19 -13 -37 -5 -29 2 -39 78 -115 46 -45 84 -85 84 -87
0 -6 -67 36 -90 56 -9 7 -28 19 -43 27 -15 8 -27 18 -27 23 0 4 -6 8 -14 8
-18 0 -193 167 -184 175 7 7 45 -13 97 -51 40 -28 56 -24 19 6 -24 18 -59 78
-64 109 -2 8 -6 26 -9 40 -5 23 -4 22 15 -7 11 -18 20 -37 20 -42z m570 -660
c14 -14 54 -50 90 -80 36 -30 67 -57 70 -61 8 -9 143 -103 165 -115 11 -6 37
-21 58 -33 60 -34 176 -91 183 -90 4 0 10 -3 13 -8 8 -11 214 -111 451 -219
87 -40 95 -46 95 -71 0 -26 2 -28 45 -28 28 0 48 -5 54 -14 26 -42 -89 -31
-198 18 -70 32 -106 43 -158 46 -23 2 -47 12 -64 29 -24 22 -265 153 -272 148
-5 -4 -147 71 -150 79 -2 5 -10 9 -18 9 -7 0 -19 9 -26 21 -7 11 -33 31 -58
44 -25 13 -88 55 -140 94 -52 39 -105 74 -118 77 -13 4 -21 12 -18 19 2 7 -2
21 -9 32 -12 15 -17 16 -34 6 -12 -7 -28 -13 -36 -13 -9 0 -15 6 -14 13 4 22
-14 52 -58 95 -47 48 -53 58 -24 42 11 -5 29 -10 40 -10 12 0 21 -4 21 -10 0
-5 7 -7 15 -3 9 3 13 8 11 11 -3 3 -1 11 6 19 12 15 22 8 78 -47z"/>
<path d="M4172 7870 c-8 -6 -10 -4489 -2 -4491 22 -6 2887 -4 2895 2 6 4 10
74 9 176 l-1 168 -164 3 c-90 1 -171 2 -179 2 -8 0 -80 0 -160 0 -80 0 -152 0
-160 0 -8 0 -80 0 -160 0 -80 0 -152 0 -160 0 -8 0 -80 0 -160 0 -80 0 -152 0
-160 0 -8 0 -80 0 -160 0 -80 0 -152 0 -160 0 -303 1 -314 1 -483 -2 -75 -2
-137 1 -137 5 0 4 -8 4 -17 -1 -10 -6 -28 -6 -40 -1 l-22 8 1 931 c0 592 4
932 10 936 17 11 67 10 72 0 3 -7 5 -7 5 -1 1 6 54 9 143 7 172 -3 154 -3 206
1 25 2 42 -1 42 -7 0 -7 3 -8 8 -1 6 9 22 11 47 5 6 -1 15 -1 20 0 32 7 85 5
85 -4 0 -7 3 -8 8 -1 6 9 22 11 47 5 6 -1 15 -1 20 0 32 7 85 5 85 -4 0 -7 3
-8 8 -1 6 9 22 11 47 5 6 -1 15 -1 20 0 28 7 81 4 87 -5 5 -7 8 -6 8 1 0 6 23
9 63 7 68 -4 64 -4 122 0 22 1 43 -2 47 -8 5 -7 8 -7 8 0 0 6 66 9 182 7 209
-3 191 -3 243 1 22 1 43 -2 47 -8 5 -7 8 -7 8 0 0 6 57 10 153 9 l152 -1 0
147 0 148 -955 0 c-525 1 -974 1 -997 1 l-42 1 1 805 0 805 1159 0 c637 0
1159 3 1160 8 5 39 2 327 -3 335 -5 9 -371 12 -1449 12 -792 0 -1444 -2 -1447
-5z"/>
<path d="M8929 7109 c14 -20 27 -36 29 -34 9 8 -28 72 -41 72 -11 0 -8 -10 12
-38z"/>
<path d="M2501 3321 c-17 -11 -3 -28 50 -60 45 -28 51 -26 37 7 -24 57 -53 74
-87 53z"/>
<path d="M8495 3310 c3 -5 8 -10 11 -10 2 0 4 5 4 10 0 6 -5 10 -11 10 -5 0
-7 -4 -4 -10z"/>
<path d="M8417 3264 c-39 -52 -4 -60 49 -11 l36 33 -34 0 c-24 0 -39 -7 -51
-22z"/>
</g>
</svg>
